<svg xmlns="http://www.w3.org/2000/svg" version="1.1" xmlns:xlink="http://www.w3.org/1999/xlink" xmlns:svgjs="http://svgjs.dev/svgjs" width="2000" height="1500" viewBox="0 0 2000 1500"><rect width="2000" height="1500" fill="#0c1d36"></rect><g transform="matrix(0.75,0,0,0.75,249.090909090909,582.9247960481529)"><svg viewBox="0 0 396 88" data-background-color="#0c1d36" preserveAspectRatio="xMidYMid meet" height="444" width="2000" xmlns="http://www.w3.org/2000/svg" xmlns:xlink="http://www.w3.org/1999/xlink"><g id="tight-bounds" transform="matrix(1,0,0,1,0.2400000000000091,0.15200584913677062)"><svg viewBox="0 0 395.52 87.69598830172647" height="87.69598830172647" width="395.52"><g><svg viewBox="0 0 554.7773874348386 123.00705723742918" height="87.69598830172647" width="395.52"><g transform="matrix(1,0,0,1,159.25738743483868,0)"><svg viewBox="0 0 395.52 123.00705723742918" height="123.00705723742918" width="395.52"><g id="textblocktransform"><svg viewBox="0 0 395.52 123.00705723742918" height="123.00705723742918" width="395.52" id="textblock"><g><svg viewBox="0 0 395.52 63.449047013977136" height="63.449047013977136" width="395.52"><g transform="matrix(1,0,0,1,0,0)"><svg width="395.52" viewBox="-0.1 -39.65 314.76000000000005 50.5" height="63.449047013977136" data-palette-color="#ffffff"><path d="M24.95 0L18.5 0 16.8-8.1 7.9-8.1 6.25 0-0.1 0 8.6-34.55 16.3-34.55 24.95 0ZM12.35-29.7L8.9-12.9 15.85-12.9 12.35-29.7ZM35.05-27.15Q39.75-27.15 43-24.05L43-24.05 40.65-20.7Q39.25-21.7 38-22.2 36.75-22.7 35.45-22.7L35.45-22.7Q34-22.7 33.17-21.93 32.35-21.15 32.35-19.8L32.35-19.8Q32.35-18.45 33.27-17.63 34.2-16.8 37-15.7L37-15.7Q40.45-14.35 42.1-12.5 43.75-10.65 43.75-7.55L43.75-7.55Q43.75-3.7 41.05-1.48 38.35 0.75 34.2 0.75L34.2 0.75Q31.5 0.75 29.22-0.23 26.95-1.2 25.25-2.95L25.25-2.95 28.25-6.25Q31.05-3.8 33.95-3.8L33.95-3.8Q35.6-3.8 36.55-4.67 37.5-5.55 37.5-7.1L37.5-7.1Q37.5-8.25 37.1-8.97 36.7-9.7 35.7-10.33 34.7-10.95 32.7-11.7L32.7-11.7Q29.25-13.05 27.77-14.85 26.3-16.65 26.3-19.45L26.3-19.45Q26.3-22.8 28.67-24.98 31.05-27.15 35.05-27.15L35.05-27.15ZM53.2 0.75Q50.5 0.75 48.92-0.93 47.35-2.6 47.35-5.4L47.35-5.4 47.35-37.05 53.5-37.7 53.5-5.65Q53.5-5 53.8-4.6 54.1-4.2 54.7-4.2L54.7-4.2Q55.05-4.2 55.37-4.3 55.7-4.4 55.8-4.4L55.8-4.4 57-0.2Q55.3 0.75 53.2 0.75L53.2 0.75ZM76.94-6.4Q76.94-5.1 77.29-4.48 77.64-3.85 78.44-3.45L78.44-3.45 77.19 0.65Q75.14 0.4 73.92-0.45 72.69-1.3 72.09-3.05L72.09-3.05Q69.79 0.75 65.64 0.75L65.64 0.75Q62.34 0.75 60.39-1.48 58.44-3.7 58.44-7.4L58.44-7.4Q58.44-11.7 61.12-13.95 63.79-16.2 68.89-16.2L68.89-16.2 70.94-16.2 70.94-18.05Q70.94-20.55 70.07-21.58 69.19-22.6 67.24-22.6L67.24-22.6Q64.89-22.6 61.39-21.3L61.39-21.3 59.99-25.3Q61.99-26.2 64.14-26.68 66.29-27.15 68.24-27.15L68.24-27.15Q76.94-27.15 76.94-18.35L76.94-18.35 76.94-6.4ZM67.29-3.7Q69.69-3.7 70.94-7L70.94-7 70.94-12.55 69.49-12.55Q66.94-12.55 65.77-11.4 64.59-10.25 64.59-7.85L64.59-7.85Q64.59-5.8 65.29-4.75 65.99-3.7 67.29-3.7L67.29-3.7ZM92.74-34.55L109.89-34.55 109.24-29.8 99.09-29.8 99.09-19.9 107.94-19.9 107.94-15.2 99.09-15.2 99.09-4.8 109.89-4.8 109.89 0 92.74 0 92.74-34.55ZM126.59-27.15Q129.44-27.15 131.09-25.1 132.74-23.05 132.74-19.6L132.74-19.6 132.74 0 126.59 0 126.59-18.9Q126.59-20.8 126.06-21.63 125.54-22.45 124.54-22.45L124.54-22.45Q122.44-22.45 120.39-18.5L120.39-18.5 120.39 0 114.24 0 114.24-26.45 119.59-26.45 120.04-23Q121.39-25.1 122.91-26.13 124.44-27.15 126.59-27.15L126.59-27.15ZM156.23-29.85L157.78-25.1Q156.73-24.6 155.26-24.4 153.78-24.2 151.58-24.2L151.58-24.2Q153.68-23.2 154.71-21.53 155.73-19.85 155.73-17.4L155.73-17.4Q155.73-13.4 153.28-10.95 150.83-8.5 146.63-8.5L146.63-8.5Q145.38-8.5 144.08-8.9L144.08-8.9Q143.18-8.15 143.18-6.85L143.18-6.85Q143.18-5.85 143.73-5.35 144.28-4.85 145.78-4.85L145.78-4.85 148.58-4.85Q152.58-4.85 154.93-2.78 157.28-0.7 157.28 2.5L157.28 2.5Q157.28 6.3 154.36 8.58 151.43 10.85 146.03 10.85L146.03 10.85Q140.33 10.85 138.06 8.75 135.78 6.65 135.78 2.6L135.78 2.6 141.23 2.6Q141.23 4.75 142.23 5.65 143.23 6.55 146.08 6.55L146.08 6.55Q148.83 6.55 149.98 5.6 151.13 4.65 151.13 2.9L151.13 2.9Q151.13 1.2 150.18 0.4 149.23-0.4 147.23-0.4L147.23-0.4 145.33-0.4Q141.53-0.4 139.78-1.75 138.03-3.1 138.03-5.45L138.03-5.45Q138.03-6.8 138.76-8.03 139.48-9.25 140.73-10.2L140.73-10.2Q138.68-11.5 137.73-13.3 136.78-15.1 136.78-17.7L136.78-17.7Q136.78-22.05 139.38-24.58 141.98-27.1 146.38-27.1L146.38-27.1Q149.63-27.1 151.76-27.8 153.88-28.5 156.23-29.85L156.23-29.85ZM146.38-23Q144.63-23 143.73-21.75 142.83-20.5 142.83-17.8L142.83-17.8Q142.83-15.25 143.73-13.88 144.63-12.5 146.33-12.5L146.33-12.5Q148.08-12.5 148.93-13.73 149.78-14.95 149.78-17.85L149.78-17.85Q149.78-20.55 148.96-21.78 148.13-23 146.38-23L146.38-23ZM160.53-26.45L166.68-26.45 166.68 0 160.53 0 160.53-26.45ZM163.58-39.65Q165.23-39.65 166.26-38.6 167.28-37.55 167.28-35.9L167.28-35.9Q167.28-34.3 166.26-33.25 165.23-32.2 163.58-32.2L163.58-32.2Q161.93-32.2 160.91-33.25 159.88-34.3 159.88-35.9L159.88-35.9Q159.88-37.55 160.91-38.6 161.93-39.65 163.58-39.65L163.58-39.65ZM184.73-27.15Q187.58-27.15 189.23-25.1 190.88-23.05 190.88-19.6L190.88-19.6 190.88 0 184.73 0 184.73-18.9Q184.73-20.8 184.2-21.63 183.68-22.45 182.68-22.45L182.68-22.45Q180.58-22.45 178.53-18.5L178.53-18.5 178.53 0 172.38 0 172.38-26.45 177.73-26.45 178.18-23Q179.53-25.1 181.05-26.13 182.58-27.15 184.73-27.15L184.73-27.15ZM215.28-13.85Q215.28-13.4 215.13-11.3L215.13-11.3 201.48-11.3Q201.68-7.2 202.9-5.58 204.13-3.95 206.38-3.95L206.38-3.95Q207.93-3.95 209.18-4.48 210.43-5 211.88-6.15L211.88-6.15 214.43-2.65Q210.93 0.75 206.03 0.75L206.03 0.75Q200.83 0.75 198.05-2.85 195.28-6.45 195.28-13L195.28-13Q195.28-19.55 197.93-23.35 200.58-27.15 205.43-27.15L205.43-27.15Q210.08-27.15 212.68-23.78 215.28-20.4 215.28-13.85L215.28-13.85ZM209.28-15.3L209.28-15.65Q209.28-19.4 208.38-21.13 207.48-22.85 205.48-22.85L205.48-22.85Q203.63-22.85 202.65-21.18 201.68-19.5 201.48-15.3L201.48-15.3 209.28-15.3ZM238.42-13.85Q238.42-13.4 238.27-11.3L238.27-11.3 224.62-11.3Q224.82-7.2 226.05-5.58 227.27-3.95 229.52-3.95L229.52-3.95Q231.07-3.95 232.32-4.48 233.57-5 235.02-6.15L235.02-6.15 237.57-2.65Q234.07 0.75 229.17 0.75L229.17 0.75Q223.97 0.75 221.2-2.85 218.42-6.45 218.42-13L218.42-13Q218.42-19.55 221.07-23.35 223.72-27.15 228.57-27.15L228.57-27.15Q233.22-27.15 235.82-23.78 238.42-20.4 238.42-13.85L238.42-13.85ZM232.42-15.3L232.42-15.65Q232.42-19.4 231.52-21.13 230.62-22.85 228.62-22.85L228.62-22.85Q226.77-22.85 225.8-21.18 224.82-19.5 224.62-15.3L224.62-15.3 232.42-15.3ZM254.37-27.1Q255.52-27.1 256.42-26.75L256.42-26.75 255.42-20.85Q254.42-21.1 253.57-21.1L253.57-21.1Q251.67-21.1 250.57-19.45 249.47-17.8 248.87-14.55L248.87-14.55 248.87 0 242.72 0 242.72-26.45 248.07-26.45 248.52-21.85Q250.37-27.1 254.37-27.1L254.37-27.1ZM259.27-26.45L265.42-26.45 265.42 0 259.27 0 259.27-26.45ZM262.32-39.65Q263.97-39.65 264.99-38.6 266.02-37.55 266.02-35.9L266.02-35.9Q266.02-34.3 264.99-33.25 263.97-32.2 262.32-32.2L262.32-32.2Q260.67-32.2 259.64-33.25 258.62-34.3 258.62-35.9L258.62-35.9Q258.62-37.55 259.64-38.6 260.67-39.65 262.32-39.65L262.32-39.65ZM283.47-27.15Q286.32-27.15 287.97-25.1 289.62-23.05 289.62-19.6L289.62-19.6 289.62 0 283.47 0 283.47-18.9Q283.47-20.8 282.94-21.63 282.42-22.45 281.42-22.45L281.42-22.45Q279.32-22.45 277.27-18.5L277.27-18.5 277.27 0 271.12 0 271.12-26.45 276.47-26.45 276.92-23Q278.27-25.1 279.79-26.13 281.32-27.15 283.47-27.15L283.47-27.15ZM313.11-29.85L314.66-25.1Q313.61-24.6 312.14-24.4 310.66-24.2 308.46-24.2L308.46-24.2Q310.56-23.2 311.59-21.53 312.61-19.85 312.61-17.4L312.61-17.4Q312.61-13.4 310.16-10.95 307.71-8.5 303.51-8.5L303.51-8.5Q302.26-8.5 300.96-8.9L300.96-8.9Q300.06-8.15 300.06-6.85L300.06-6.85Q300.06-5.85 300.61-5.35 301.16-4.85 302.66-4.85L302.66-4.85 305.46-4.85Q309.46-4.85 311.81-2.78 314.16-0.7 314.16 2.5L314.16 2.5Q314.16 6.3 311.24 8.58 308.31 10.85 302.91 10.85L302.91 10.85Q297.21 10.85 294.94 8.75 292.66 6.65 292.66 2.6L292.66 2.6 298.11 2.6Q298.11 4.75 299.11 5.65 300.11 6.55 302.96 6.55L302.96 6.55Q305.71 6.55 306.86 5.6 308.01 4.65 308.01 2.9L308.01 2.9Q308.01 1.2 307.06 0.4 306.11-0.4 304.11-0.4L304.11-0.4 302.21-0.4Q298.41-0.4 296.66-1.75 294.91-3.1 294.91-5.45L294.91-5.45Q294.91-6.8 295.64-8.03 296.36-9.25 297.61-10.2L297.61-10.2Q295.56-11.5 294.61-13.3 293.66-15.1 293.66-17.7L293.66-17.7Q293.66-22.05 296.26-24.58 298.86-27.1 303.26-27.1L303.26-27.1Q306.51-27.1 308.64-27.8 310.76-28.5 313.11-29.85L313.11-29.85ZM303.26-23Q301.51-23 300.61-21.75 299.71-20.5 299.71-17.8L299.71-17.8Q299.71-15.25 300.61-13.88 301.51-12.5 303.21-12.5L303.21-12.5Q304.96-12.5 305.81-13.73 306.66-14.95 306.66-17.85L306.66-17.85Q306.66-20.55 305.84-21.78 305.01-23 303.26-23L303.26-23Z" opacity="1" transform="matrix(1,0,0,1,0,0)" fill="#ffffff" class="wordmark-text-0" data-fill-palette-color="primary" id="text-0"></path></svg></g></svg></g><g transform="matrix(1,0,0,1,0,78.4278442368488)"><svg viewBox="0 0 395.52 44.57921300058038" height="44.57921300058038" width="395.52"><g transform="matrix(1,0,0,1,0,0)"><svg width="395.52" viewBox="1.75 -37.7 430.75 48.550000000000004" height="44.57921300058038" data-palette-color="#b5dff6"><path d="M14.5-35.25Q17.15-35.25 19.18-34.38 21.2-33.5 23.1-31.7L23.1-31.7 20.05-28.05Q18.75-29.25 17.53-29.83 16.3-30.4 14.85-30.4L14.85-30.4Q11.85-30.4 10.15-27.4 8.45-24.4 8.45-17.35L8.45-17.35Q8.45-10.4 10.15-7.38 11.85-4.35 14.95-4.35L14.95-4.35Q16.5-4.35 17.65-4.98 18.8-5.6 20.35-6.9L20.35-6.9 23.4-3.4Q21.8-1.6 19.55-0.43 17.3 0.75 14.5 0.75L14.5 0.75Q8.65 0.75 5.2-3.8 1.75-8.35 1.75-17.35L1.75-17.35Q1.75-23.3 3.4-27.3 5.05-31.3 7.93-33.27 10.8-35.25 14.5-35.25L14.5-35.25ZM36.05-27.15Q41.05-27.15 43.83-23.65 46.6-20.15 46.6-13.25L46.6-13.25Q46.6-6.65 43.8-2.95 41 0.75 36.05 0.75L36.05 0.75Q31.1 0.75 28.3-2.88 25.5-6.5 25.5-13.25L25.5-13.25Q25.5-19.95 28.3-23.55 31.1-27.15 36.05-27.15L36.05-27.15ZM36.05-22.5Q33.9-22.5 32.9-20.38 31.9-18.25 31.9-13.25L31.9-13.25Q31.9-8.2 32.9-6.08 33.9-3.95 36.05-3.95L36.05-3.95Q38.2-3.95 39.2-6.08 40.2-8.2 40.2-13.25L40.2-13.25Q40.2-18.3 39.2-20.4 38.2-22.5 36.05-22.5L36.05-22.5ZM64.1-37.7L70.25-37.05 70.25 0 64.8 0 64.5-3.05Q62.15 0.75 58.45 0.75L58.45 0.75Q54.35 0.75 52.18-2.93 50-6.6 50-13.2L50-13.2Q50-17.4 51.13-20.58 52.25-23.75 54.25-25.45 56.25-27.15 58.85-27.15L58.85-27.15Q62.05-27.15 64.1-24.5L64.1-24.5 64.1-37.7ZM60.2-3.9Q61.35-3.9 62.28-4.7 63.2-5.5 64.1-7L64.1-7 64.1-19.85Q62.5-22.55 60.45-22.55L60.45-22.55Q56.4-22.55 56.4-13.25L56.4-13.25Q56.4-8.2 57.4-6.05 58.4-3.9 60.2-3.9L60.2-3.9ZM94.8-13.85Q94.8-13.4 94.65-11.3L94.65-11.3 81-11.3Q81.2-7.2 82.43-5.58 83.65-3.95 85.9-3.95L85.9-3.95Q87.45-3.95 88.7-4.48 89.95-5 91.4-6.15L91.4-6.15 93.95-2.65Q90.45 0.75 85.55 0.75L85.55 0.75Q80.35 0.75 77.58-2.85 74.8-6.45 74.8-13L74.8-13Q74.8-19.55 77.45-23.35 80.1-27.15 84.95-27.15L84.95-27.15Q89.6-27.15 92.2-23.78 94.8-20.4 94.8-13.85L94.8-13.85ZM88.8-15.3L88.8-15.65Q88.8-19.4 87.9-21.13 87-22.85 85-22.85L85-22.85Q83.15-22.85 82.18-21.18 81.2-19.5 81-15.3L81-15.3 88.8-15.3ZM101.6-7.05Q103.3-7.05 104.35-5.9 105.4-4.75 105.4-3.15L105.4-3.15Q105.4-1.55 104.35-0.4 103.3 0.75 101.6 0.75L101.6 0.75Q99.95 0.75 98.88-0.4 97.8-1.55 97.8-3.15L97.8-3.15Q97.8-4.75 98.88-5.9 99.95-7.05 101.6-7.05L101.6-7.05ZM131.35-35.25Q134-35.25 136.03-34.38 138.05-33.5 139.95-31.7L139.95-31.7 136.9-28.05Q135.6-29.25 134.38-29.83 133.15-30.4 131.7-30.4L131.7-30.4Q128.7-30.4 127-27.4 125.3-24.4 125.3-17.35L125.3-17.35Q125.3-10.4 127-7.38 128.7-4.35 131.8-4.35L131.8-4.35Q133.35-4.35 134.5-4.98 135.65-5.6 137.2-6.9L137.2-6.9 140.25-3.4Q138.65-1.6 136.4-0.43 134.15 0.75 131.35 0.75L131.35 0.75Q125.5 0.75 122.05-3.8 118.6-8.35 118.6-17.35L118.6-17.35Q118.6-23.3 120.25-27.3 121.9-31.3 124.78-33.27 127.65-35.25 131.35-35.25L131.35-35.25ZM155.15-27.1Q156.3-27.1 157.2-26.75L157.2-26.75 156.2-20.85Q155.2-21.1 154.35-21.1L154.35-21.1Q152.45-21.1 151.35-19.45 150.25-17.8 149.65-14.55L149.65-14.55 149.65 0 143.5 0 143.5-26.45 148.85-26.45 149.3-21.85Q151.15-27.1 155.15-27.1L155.15-27.1ZM178.9-13.85Q178.9-13.4 178.75-11.3L178.75-11.3 165.1-11.3Q165.3-7.2 166.53-5.58 167.75-3.95 170-3.95L170-3.95Q171.55-3.95 172.8-4.48 174.05-5 175.5-6.15L175.5-6.15 178.05-2.65Q174.55 0.75 169.65 0.75L169.65 0.75Q164.45 0.75 161.68-2.85 158.9-6.45 158.9-13L158.9-13Q158.9-19.55 161.55-23.35 164.2-27.15 169.05-27.15L169.05-27.15Q173.7-27.15 176.3-23.78 178.9-20.4 178.9-13.85L178.9-13.85ZM172.9-15.3L172.9-15.65Q172.9-19.4 172-21.13 171.1-22.85 169.1-22.85L169.1-22.85Q167.25-22.85 166.28-21.18 165.3-19.5 165.1-15.3L165.1-15.3 172.9-15.3ZM200.1-6.4Q200.1-5.1 200.45-4.48 200.8-3.85 201.6-3.45L201.6-3.45 200.35 0.65Q198.3 0.4 197.08-0.45 195.85-1.3 195.25-3.05L195.25-3.05Q192.95 0.75 188.8 0.75L188.8 0.75Q185.5 0.75 183.55-1.48 181.6-3.7 181.6-7.4L181.6-7.4Q181.6-11.7 184.28-13.95 186.95-16.2 192.05-16.2L192.05-16.2 194.1-16.2 194.1-18.05Q194.1-20.55 193.23-21.58 192.35-22.6 190.4-22.6L190.4-22.6Q188.05-22.6 184.55-21.3L184.55-21.3 183.15-25.3Q185.15-26.2 187.3-26.68 189.45-27.15 191.4-27.15L191.4-27.15Q200.1-27.15 200.1-18.35L200.1-18.35 200.1-6.4ZM190.45-3.7Q192.85-3.7 194.1-7L194.1-7 194.1-12.55 192.65-12.55Q190.1-12.55 188.93-11.4 187.75-10.25 187.75-7.85L187.75-7.85Q187.75-5.8 188.45-4.75 189.15-3.7 190.45-3.7L190.45-3.7ZM217.05-5L219.2-1.2Q216.75 0.75 213.45 0.75L213.45 0.75Q210 0.75 208.2-1.23 206.4-3.2 206.4-6.6L206.4-6.6 206.4-22 203.3-22 203.3-26.45 206.4-26.45 206.4-32.3 212.55-33.05 212.55-26.45 217.55-26.45 216.95-22 212.55-22 212.55-6.6Q212.55-4.2 214.6-4.2L214.6-4.2Q215.25-4.2 215.75-4.38 216.25-4.55 217.05-5L217.05-5ZM240.6-13.85Q240.6-13.4 240.45-11.3L240.45-11.3 226.8-11.3Q227-7.2 228.23-5.58 229.45-3.95 231.7-3.95L231.7-3.95Q233.25-3.95 234.5-4.48 235.75-5 237.2-6.15L237.2-6.15 239.75-2.65Q236.25 0.75 231.35 0.75L231.35 0.75Q226.15 0.75 223.38-2.85 220.6-6.45 220.6-13L220.6-13Q220.6-19.55 223.25-23.35 225.9-27.15 230.75-27.15L230.75-27.15Q235.4-27.15 238-23.78 240.6-20.4 240.6-13.85L240.6-13.85ZM234.6-15.3L234.6-15.65Q234.6-19.4 233.7-21.13 232.8-22.85 230.8-22.85L230.8-22.85Q228.95-22.85 227.98-21.18 227-19.5 226.8-15.3L226.8-15.3 234.6-15.3ZM247.4-7.05Q249.1-7.05 250.15-5.9 251.2-4.75 251.2-3.15L251.2-3.15Q251.2-1.55 250.15-0.4 249.1 0.75 247.4 0.75L247.4 0.75Q245.75 0.75 244.68-0.4 243.6-1.55 243.6-3.15L243.6-3.15Q243.6-4.75 244.68-5.9 245.75-7.05 247.4-7.05L247.4-7.05ZM277.15-35.25Q279.8-35.25 281.83-34.38 283.85-33.5 285.75-31.7L285.75-31.7 282.7-28.05Q281.4-29.25 280.18-29.83 278.95-30.4 277.5-30.4L277.5-30.4Q274.5-30.4 272.8-27.4 271.1-24.4 271.1-17.35L271.1-17.35Q271.1-10.4 272.8-7.38 274.5-4.35 277.6-4.35L277.6-4.35Q279.15-4.35 280.3-4.98 281.45-5.6 283-6.9L283-6.9 286.05-3.4Q284.45-1.6 282.2-0.43 279.95 0.75 277.15 0.75L277.15 0.75Q271.3 0.75 267.85-3.8 264.4-8.35 264.4-17.35L264.4-17.35Q264.4-23.3 266.05-27.3 267.7-31.3 270.58-33.27 273.45-35.25 277.15-35.25L277.15-35.25ZM298.7-27.15Q303.7-27.15 306.48-23.65 309.25-20.15 309.25-13.25L309.25-13.25Q309.25-6.65 306.45-2.95 303.65 0.75 298.7 0.75L298.7 0.75Q293.75 0.75 290.95-2.88 288.15-6.5 288.15-13.25L288.15-13.25Q288.15-19.95 290.95-23.55 293.75-27.15 298.7-27.15L298.7-27.15ZM298.7-22.5Q296.55-22.5 295.55-20.38 294.55-18.25 294.55-13.25L294.55-13.25Q294.55-8.2 295.55-6.08 296.55-3.95 298.7-3.95L298.7-3.95Q300.85-3.95 301.85-6.08 302.85-8.2 302.85-13.25L302.85-13.25Q302.85-18.3 301.85-20.4 300.85-22.5 298.7-22.5L298.7-22.5ZM326.15-27.15Q329-27.15 330.65-25.1 332.3-23.05 332.3-19.6L332.3-19.6 332.3 0 326.15 0 326.15-18.9Q326.15-20.8 325.63-21.63 325.1-22.45 324.1-22.45L324.1-22.45Q322-22.45 319.95-18.5L319.95-18.5 319.95 0 313.8 0 313.8-26.45 319.15-26.45 319.6-23Q320.95-25.1 322.48-26.13 324-27.15 326.15-27.15L326.15-27.15ZM351.6-26.45L356.95-26.45 356.95 10.85 350.8 10.15 350.8-2.65Q348.7 0.75 345.1 0.75L345.1 0.75Q341.1 0.75 338.9-2.9 336.7-6.55 336.7-13.2L336.7-13.2Q336.7-17.45 337.83-20.6 338.95-23.75 340.95-25.45 342.95-27.15 345.6-27.15L345.6-27.15Q349.05-27.15 351.3-23.95L351.3-23.95 351.6-26.45ZM346.85-3.9Q348.05-3.9 349-4.7 349.95-5.5 350.8-7.1L350.8-7.1 350.8-19.8Q349.1-22.55 347.1-22.55L347.1-22.55Q345.3-22.55 344.2-20.33 343.1-18.1 343.1-13.25L343.1-13.25Q343.1-8.1 344.08-6 345.05-3.9 346.85-3.9L346.85-3.9ZM380.8-26.45L380.8 0 375.45 0 375.15-3.35Q373.9-1.3 372.35-0.28 370.8 0.75 368.75 0.75L368.75 0.75Q365.85 0.75 364.18-1.3 362.5-3.35 362.5-6.65L362.5-6.65 362.5-26.45 368.65-26.45 368.65-7Q368.65-3.9 370.75-3.9L370.75-3.9Q371.95-3.9 372.9-4.83 373.85-5.75 374.65-7.45L374.65-7.45 374.65-26.45 380.8-26.45ZM405.35-13.85Q405.35-13.4 405.2-11.3L405.2-11.3 391.55-11.3Q391.75-7.2 392.98-5.58 394.2-3.95 396.45-3.95L396.45-3.95Q398-3.95 399.25-4.48 400.5-5 401.95-6.15L401.95-6.15 404.5-2.65Q401 0.75 396.1 0.75L396.1 0.75Q390.9 0.75 388.13-2.85 385.35-6.45 385.35-13L385.35-13Q385.35-19.55 388-23.35 390.65-27.15 395.5-27.15L395.5-27.15Q400.15-27.15 402.75-23.78 405.35-20.4 405.35-13.85L405.35-13.85ZM399.35-15.3L399.35-15.65Q399.35-19.4 398.45-21.13 397.55-22.85 395.55-22.85L395.55-22.85Q393.7-22.85 392.73-21.18 391.75-19.5 391.55-15.3L391.55-15.3 399.35-15.3ZM421.3-27.1Q422.45-27.1 423.35-26.75L423.35-26.75 422.35-20.85Q421.35-21.1 420.5-21.1L420.5-21.1Q418.6-21.1 417.5-19.45 416.4-17.8 415.8-14.55L415.8-14.55 415.8 0 409.65 0 409.65-26.45 415-26.45 415.45-21.85Q417.3-27.1 421.3-27.1L421.3-27.1ZM428.7-7.05Q430.4-7.05 431.45-5.9 432.5-4.75 432.5-3.15L432.5-3.15Q432.5-1.55 431.45-0.4 430.4 0.75 428.7 0.75L428.7 0.75Q427.05 0.75 425.98-0.4 424.9-1.55 424.9-3.15L424.9-3.15Q424.9-4.75 425.98-5.9 427.05-7.05 428.7-7.05L428.7-7.05Z" opacity="1" transform="matrix(1,0,0,1,0,0)" fill="#b5dff6" class="slogan-text-1" data-fill-palette-color="secondary" id="text-1"></path></svg></g></svg></g></svg></g></svg></g><g transform="matrix(1,0,0,1,0,3.7049725639913547)"><svg viewBox="0 0 144.278590211967 115.59711210944647" height="115.59711210944647" width="144.278590211967"><g><svg xmlns="http://www.w3.org/2000/svg" xmlns:xlink="http://www.w3.org/1999/xlink" version="1.1" x="0" y="0" viewBox="4.34 3.127 91.08499999999998 72.97800000000001" enable-background="new 0 0 100 80.121" xml:space="preserve" height="115.59711210944647" width="144.278590211967" class="icon-icon-0" data-fill-palette-color="accent" id="icon-0"><g fill="#f9f9f9" data-fill-palette-color="accent"><circle fill="none" cx="49.882" cy="61.279" r="1.8"></circle><path fill="none" d="M8.181 53.791h83.402V6.786H8.181V53.791zM20.984 38.335c0.619 0 1.194 0.178 1.684 0.482L35.916 25.57c-0.304-0.49-0.482-1.065-0.482-1.684 0-1.768 1.433-3.201 3.201-3.201s3.201 1.433 3.201 3.201c0 0.362-0.063 0.708-0.173 1.032l14.292 8.949c0.578-0.573 1.373-0.927 2.252-0.927 0.793 0 1.519 0.291 2.078 0.769l15.552-11.405c-0.164-0.384-0.255-0.808-0.255-1.252 0-1.768 1.434-3.201 3.2-3.201 1.769 0 3.201 1.433 3.201 3.201 0 1.768-1.433 3.2-3.201 3.2-0.794 0-1.519-0.291-2.077-0.769L61.15 34.888c0.164 0.385 0.255 0.808 0.255 1.253 0 1.768-1.433 3.201-3.2 3.201-1.769 0-3.201-1.433-3.201-3.201 0-0.362 0.063-0.708 0.173-1.032l-14.29-8.948c-0.579 0.573-1.374 0.927-2.252 0.927-0.619 0-1.194-0.179-1.684-0.483L23.702 39.853c0.304 0.489 0.483 1.065 0.483 1.684 0 1.768-1.433 3.2-3.201 3.2-1.768 0-3.201-1.433-3.201-3.2C17.783 39.768 19.216 38.335 20.984 38.335z"></path><path d="M92.709 3.127H50.636h-1.432H7.13c-1.499 0-2.79 1.14-2.79 2.639v51.865 0.183 4.804 0.303c0 1.499 1.291 2.759 2.79 2.759h33.697c-0.039 0.859-0.308 4.557-2.066 6.349-1.385 1.411-3.312 2.736-2.559 3.417 0.183 0.416 1.046 0.659 3.011 0.659 4.333 0 9.027 0 10.745 0 0.435 0 0.678 0 0.678 0 1.718 0 6.412 0 10.745 0 2.239 0 3.022-0.366 3.029-0.914h-0.078v-0.183h-0.078c-0.101-0.734-1.593-1.828-2.722-2.979-1.759-1.792-2.027-5.489-2.067-6.349h33.245c1.499 0 2.715-1.26 2.715-2.759v-0.303-4.804-0.183V5.767C95.424 4.267 94.208 3.127 92.709 3.127zM49.882 63.049c-0.978 0-1.77-0.792-1.77-1.77s0.792-1.771 1.77-1.771c0.977 0 1.77 0.793 1.77 1.771S50.859 63.049 49.882 63.049zM91.583 53.791H8.181V6.786h83.402V53.791z" fill="#f9f9f9" data-fill-palette-color="accent"></path><path d="M20.984 44.737c1.768 0 3.201-1.433 3.201-3.2 0-0.619-0.179-1.195-0.483-1.684L36.95 26.604c0.489 0.304 1.065 0.483 1.684 0.483 0.878 0 1.674-0.354 2.252-0.927l14.29 8.948c-0.11 0.324-0.173 0.67-0.173 1.032 0 1.768 1.433 3.201 3.201 3.201 1.768 0 3.2-1.433 3.2-3.201 0-0.445-0.091-0.868-0.255-1.253l15.553-11.405c0.559 0.479 1.283 0.769 2.077 0.769 1.769 0 3.201-1.433 3.201-3.2 0-1.768-1.433-3.201-3.201-3.201-1.767 0-3.2 1.433-3.2 3.201 0 0.445 0.091 0.868 0.255 1.252L60.283 33.709c-0.56-0.479-1.285-0.769-2.078-0.769-0.879 0-1.674 0.354-2.252 0.927l-14.292-8.949c0.111-0.324 0.173-0.67 0.173-1.032 0-1.768-1.433-3.201-3.201-3.201s-3.201 1.433-3.201 3.201c0 0.619 0.178 1.194 0.482 1.684L22.668 38.818c-0.49-0.304-1.065-0.482-1.684-0.482-1.768 0-3.201 1.433-3.201 3.201C17.783 43.304 19.216 44.737 20.984 44.737z" fill="#f9f9f9" data-fill-palette-color="accent"></path></g></svg></g></svg></g></svg></g><defs></defs></svg><rect width="395.52" height="87.69598830172647" fill="none" stroke="none" visibility="hidden"></rect></g></svg></g></svg>